<svg width="364" height="478" viewBox="0 0 364 478" fill="none" xmlns="http://www.w3.org/2000/svg">
<g clip-path="url(#clip0_3_21)">
<path d="M267.152 468.688L255.293 468.687L249.652 422.944L267.155 422.945L267.152 468.688Z" fill="#FFE6A9"/>
<path d="M226.522 468.419C226.152 469.041 225.958 471.048 225.958 471.771C225.958 473.994 227.76 475.796 229.983 475.796H266.709C268.225 475.796 269.455 474.567 269.455 473.05V471.521C269.455 471.521 271.272 466.926 267.531 461.261C267.531 461.261 262.882 465.697 255.935 458.75L253.887 455.039L239.058 465.884L230.839 466.895C229.041 467.117 227.447 466.861 226.522 468.419H226.522Z" fill="#2F2E41"/>
<path d="M322.152 468.688L310.293 468.687L304.652 422.944L322.155 422.945L322.152 468.688Z" fill="#FFE6A9"/>
<path d="M281.522 468.419C281.152 469.041 280.958 471.048 280.958 471.771C280.958 473.994 282.76 475.796 284.983 475.796H321.709C323.225 475.796 324.455 474.567 324.455 473.05V471.521C324.455 471.521 326.272 466.926 322.531 461.261C322.531 461.261 317.882 465.697 310.935 458.75L308.887 455.039L294.058 465.884L285.839 466.895C284.041 467.117 282.447 466.861 281.522 468.419H281.522Z" fill="#2F2E41"/>
<path d="M258.636 80.159C256.086 78.1748 253.44 76.0707 252.121 73.1209C250.803 70.1711 251.329 66.1259 254.128 64.5112C257.895 62.3372 262.835 65.6775 266.94 64.2388C269.728 63.262 271.3 60.4026 272.816 57.8676C274.332 55.3327 276.463 52.6566 279.413 52.5265C283.222 52.3586 285.88 56.4704 289.586 57.3641C293.742 58.366 297.896 55.096 302.145 55.5615C306.045 55.9887 309.083 59.773 309.276 63.6914C309.47 67.6097 307.201 71.391 304.006 73.6674C299.644 76.7749 294.008 77.2847 288.667 77.6915L258.609 79.9816" fill="#8CC0DE"/>
<path d="M271.993 61.8938C286.967 61.8938 299.106 49.7548 299.106 34.7806C299.106 19.8064 286.967 7.66748 271.993 7.66748C257.019 7.66748 244.88 19.8064 244.88 34.7806C244.88 49.7548 257.019 61.8938 271.993 61.8938Z" fill="#FFE6A9"/>
<path d="M286.486 41.743L294.813 52.3968C294.813 52.3968 307.092 32.1679 297.701 18.7281C297.701 18.7281 293.229 14.2641 293.579 10.7246C293.93 7.18517 286.006 1.48577 280.521 2.72963C275.037 3.97349 275.873 0.03541 275.873 0.03541L270.258 2.60657L266.495 0L263.49 3.27653C263.49 3.27653 245.398 5.50551 249.125 17.4908C249.125 17.4908 232.895 23.4784 238.563 29.4011C244.231 35.3238 251.442 34.6977 253.387 33.1032C255.332 31.5088 271.877 31.3605 271.877 31.3605L272.858 39.4996L280.375 35.7765C280.375 35.7765 288.203 33.4244 286.486 41.743V41.743Z" fill="#2F2E41"/>
<path d="M85.6246 173.014C85.1129 173.014 84.6012 172.818 84.2106 172.428C83.4293 171.647 83.4293 170.38 84.2106 169.6L110.78 143.029C112.777 141.033 113.721 138.281 113.371 135.479L112.061 124.996C111.923 123.899 112.701 122.9 113.797 122.763C114.897 122.623 115.892 123.404 116.029 124.5L117.34 134.983C117.845 139.019 116.484 142.982 113.609 145.858L87.0387 172.428C86.6485 172.818 86.1364 173.014 85.6246 173.014V173.014Z" fill="#3F3D56"/>
<path d="M117.803 114.268L94.81 116.809L96.4074 131.262L119.4 128.72L117.803 114.268Z" fill="#3F3D56"/>
<path d="M99.5043 121.443H76.3713V128.713H99.5043V121.443Z" fill="#3F3D56"/>
<path d="M84.8796 127.095L65.8656 133.894C61.9537 135.305 57.6293 133.295 56.1657 129.397L30.8979 136.702C29.9132 137.008 28.902 137.154 27.9307 137.181C26.8796 137.234 25.9082 137.367 25.0034 137.54C20.5992 138.352 20.5285 138.269 19.7169 133C19.7036 132.894 15.7436 121.106 15.7169 121C15.1581 117.155 15.1837 116.184 18.1243 115.013C19.4549 114.494 21.025 114.002 22.6616 113.323C22.8213 113.244 22.981 113.177 23.154 113.111L48.2487 103.89V100.377H43.8711L41.2232 94.203L64.6814 83.6248C67.143 82.5072 69.9105 82.2676 72.5318 82.9197C74.5543 83.4252 76.3772 84.4365 77.8409 85.8203C79.3178 87.2041 80.4355 88.9472 81.0742 90.9297L81.7128 92.9522L88.206 113.31L89.5766 117.608C90.8273 121.52 88.7516 125.711 84.8796 127.095L84.8796 127.095Z" fill="#3F3D56"/>
<path d="M237.89 241.483L247.717 441L270.717 440L286.269 285.734L303.717 441L323.717 439L337.56 251.037L237.89 241.483Z" fill="#2F2E41"/>
<path d="M300.098 64.7327C284.098 66.3525 270.622 70.2028 260.373 70.264L234.728 82.8352L239.617 171.041L237.139 242.923C237.139 242.923 278.978 253.3 306.132 257.826C333.285 262.351 339.395 257.826 339.395 257.826L325.133 194.589L320.175 71.8928L300.098 64.7327Z" fill="#8CC0DE"/>
<path d="M344.338 187.677L344.969 138.606L326.132 133.425L326.702 187.684L322.368 227.779L322.481 227.821C320.664 229.648 319.19 232.564 318.562 236.011C317.417 242.301 319.516 247.951 323.251 248.631C326.986 249.311 330.942 244.764 332.087 238.474C332.557 235.892 332.473 233.424 331.961 231.358L332.129 231.42L344.338 187.677Z" fill="#FFE6A9"/>
<path d="M194.898 190.236L237.079 165.155L231.664 146.384L185.685 175.198L149.225 192.435L149.248 192.553C146.741 191.958 143.485 192.223 140.217 193.487C134.255 195.794 130.532 200.535 131.901 204.075C133.271 207.615 139.215 208.615 145.178 206.308C147.626 205.36 149.686 204.001 151.182 202.485L151.216 202.661L194.898 190.236Z" fill="#FFE6A9"/>
<path d="M310.081 72.3286C310.081 72.3286 318.629 65.7917 324.663 75.3457C330.697 84.8998 347.291 133.173 347.291 133.173C347.291 133.173 352.09 155.298 350.948 158.567C349.806 161.835 348.297 190.602 348.297 190.602L324.721 186.326L325.291 158.567L302.824 122.706L310.081 72.3286Z" fill="#8CC0DE"/>
<path d="M241.516 83.0866C241.516 83.0866 224.922 81.9621 222.911 92.8327C220.899 103.703 208.328 154.491 208.328 154.491L182.18 171.085L193.15 194.32C193.15 194.32 199.78 189.69 205.311 189.69C210.842 189.69 222.911 181.207 222.911 181.207C222.911 181.207 244.575 162.167 244.575 158.647C244.575 155.127 241.516 83.0866 241.516 83.0866H241.516Z" fill="#8CC0DE"/>
<path d="M102.679 153.35L95.6974 159.872L170.94 240.407L177.921 233.884L102.679 153.35Z" fill="#3F3D56"/>
<path d="M50.1932 93.1901C52.3068 92.3434 53.6084 90.6289 53.1004 89.3608C52.5924 88.0926 50.4672 87.751 48.3536 88.5976C46.24 89.4443 44.9384 91.1587 45.4464 92.4269C45.9544 93.6951 48.0796 94.0367 50.1932 93.1901Z" fill="#F4BFBF"/>
<path d="M261.262 71.9789C260.421 72.1975 259.738 72.8921 259.527 73.7353C259.428 74.1305 259.424 74.5137 259.498 74.8682C260.082 77.6977 260.686 80.523 260.686 83.4122V132.86C260.686 133.413 261.134 133.86 261.686 133.86H262.165C262.717 133.86 263.165 133.413 263.165 132.86V85.0645C263.165 81.5927 263.834 78.1847 264.375 74.7553C264.394 74.6304 264.405 74.5022 264.405 74.3715C264.405 72.7865 262.917 71.549 261.262 71.9789H261.262Z" fill="#3F3D56"/>
<path d="M291.007 68.2608C290.166 68.4791 289.483 69.1736 289.271 70.0167C289.172 70.412 289.169 70.7952 289.242 71.1498C289.826 73.9809 290.431 76.8076 290.431 79.6983V127.903C290.431 128.455 290.879 128.903 291.431 128.903H291.91C292.462 128.903 292.91 128.455 292.91 127.903V81.346C292.91 77.8744 293.578 74.4665 294.119 71.0373C294.139 70.9123 294.149 70.7842 294.149 70.6534C294.149 69.0686 292.662 67.8312 291.007 68.2608V68.2608Z" fill="#2F2E41"/>
<path d="M88.4977 458.992C86.4318 459.121 85.29 456.554 86.853 455.058L87.0085 454.44C86.9881 454.391 86.9677 454.342 86.947 454.292C84.8528 449.3 81.1031 454.012 75.6994 454.348C67.7522 454.841 67.8709 460.852 70.9495 467.879C71.7853 469.787 64.6909 454.393 64.6909 444.059C64.6909 441.463 64.833 438.866 65.1236 436.276C65.3626 434.158 65.692 432.052 66.1183 429.966C68.4241 418.689 73.4168 407.948 80.6184 398.976C84.0804 397.084 86.9675 394.125 88.7114 390.58C89.3379 389.301 94.7206 388.22 94.9531 386.819C94.5591 386.871 88.5757 380.575 88.8729 380.207C88.3238 379.373 87.3411 378.959 86.7415 378.146C83.7591 374.103 79.6503 374.809 77.5052 380.304C72.923 382.616 72.8787 386.452 75.6903 390.14C77.4791 392.487 77.7249 395.663 79.2944 398.175C79.1329 398.382 78.9649 398.582 78.8035 398.789C78.7414 398.868 78.6795 398.948 78.6178 399.028C76.0844 402.306 71.0259 401.466 69.6151 397.571C69.5122 397.287 68.639 412.677 69.296 396.748C69.9531 380.819 64.2241 388.928 61.3236 385.254C57.8592 380.867 50.8118 382.861 50.2014 388.418C50.1955 388.471 50.1899 388.524 50.1843 388.577C50.6132 388.819 51.0334 389.076 51.4438 389.348C53.7832 390.895 52.9738 394.522 50.2018 394.949L50.1391 394.959C50.2941 396.502 50.5589 398.033 50.9464 399.538C47.2455 413.85 55.2326 419.065 66.6395 419.302L67.2339 420.148C66.1538 423.256 65.2848 426.438 64.6328 429.662C64.0192 432.653 63.5928 435.675 63.3539 438.711L63.344 438.841C63.1461 441.423 59.8786 442.522 58.2363 440.519C57.8184 440.009 57.3907 439.562 56.9596 439.208C52.014 435.146 45.0268 433.65 39.6913 430.384C37.123 428.812 33.8319 430.844 34.2801 433.821L34.3019 433.964C35.0964 434.287 35.8714 434.661 36.6206 435.081C37.0499 435.323 37.4705 435.581 37.8812 435.852C40.2209 437.4 39.411 441.027 36.6382 441.453L36.5754 441.463C36.5302 441.469 36.4914 441.475 36.4463 441.482L36.4873 441.579C38.2711 445.775 42.5347 448.493 47.0876 448.244C52.4468 447.951 59.1036 452.432 64.9751 460.355L64.9815 460.355C66.1441 465.418 67.8428 470.366 70.0259 475.081H88.0461C88.1107 474.881 88.1689 474.674 88.227 474.474C86.5606 474.577 84.8813 474.48 83.2407 474.177C84.5777 472.536 85.9147 470.883 87.2517 469.242C87.284 469.21 87.3098 469.178 87.3357 469.145C88.0138 468.306 88.6985 467.472 89.3766 466.633L89.377 466.632C89.4194 464.054 89.1105 461.485 88.4982 458.992L88.4977 458.992H88.4977Z" fill="#F4BFBF"/>
<path d="M0 476.77C0 477.43 0.53003 477.96 1.19006 477.96H362.48C363.14 477.96 363.67 477.43 363.67 476.77C363.67 476.11 363.14 475.58 362.48 475.58H1.19006C0.53003 475.58 0 476.11 0 476.77Z" fill="#8CC0DE"/>
<path d="M27.0111 129.647C27.0111 132.5 26.2855 135.188 24.9993 137.546C20.5963 138.354 17.9248 139.871 17.1168 134.594C17.1003 134.495 13.8352 121.5 13.8187 121.401C13.2579 117.559 15.1874 116.19 18.1227 115.02C23.3997 117.757 27.0111 123.281 27.0111 129.647Z" fill="#F4BFBF"/>
<path d="M88.206 113.31L83.5225 114.375C80.9677 114.947 78.413 113.35 77.8408 110.782L75.2329 99.2991C74.6474 96.7311 76.2574 94.1897 78.8255 93.6042L81.7128 92.9522L88.2061 113.31H88.206Z" fill="#F4BFBF"/>
</g>
<defs>
<clipPath id="clip0_3_21">
<rect width="363.67" height="477.96" fill="white"/>
</clipPath>
</defs>
</svg>
