<svg width="476" height="241" viewBox="0 0 476 241" fill="none" xmlns="http://www.w3.org/2000/svg">
<path d="M64.256 0.759995C59.264 1.01599 55.04 4.856 55.04 9.976C55.04 24.696 55.04 39.16 55.04 53.88C43.648 55.032 32.384 56.056 20.864 57.336C20.224 43.768 19.712 30.328 19.584 16.76C19.456 12.024 15.36 7.28799 10.112 7.544C5.248 7.8 0.768 11.64 0.896 16.76C1.28 42.744 2.688 68.728 4.864 94.584C5.248 99.32 8.832 104.056 14.08 103.8C18.816 103.672 23.936 99.704 23.424 94.584C22.912 88.312 22.4 82.04 22.016 75.768C33.024 74.744 44.032 73.592 55.04 72.568C55.04 80.376 55.04 88.44 55.04 96.504C55.04 101.368 59.264 105.976 64.256 105.848C69.376 105.592 73.728 101.752 73.728 96.504C73.728 67.576 73.728 38.776 73.728 9.976C73.728 5.24 69.376 0.503998 64.256 0.759995ZM80.718 55.288C75.342 70.648 80.59 89.08 95.054 97.4C109.646 105.72 127.822 102.008 139.598 90.744C150.222 80.376 154.958 63.864 150.478 49.528C147.79 40.824 141.646 33.144 133.71 28.28C110.414 13.816 87.63 34.552 80.718 55.288ZM127.182 77.048C119.886 84.728 107.214 85.496 101.07 77.176C97.742 72.952 96.462 67.192 98.638 60.792C100.686 54.52 104.654 49.144 110.03 45.304C122.19 35.96 135.118 50.296 132.942 63.992C132.174 69.24 130.51 73.72 127.182 77.048ZM189.066 89.976C185.994 89.592 181.13 89.72 178.186 89.72C175.37 89.72 174.73 85.752 174.858 80.888C175.242 61.56 178.058 49.784 181.77 31.992C183.178 27.256 180.234 21.624 175.37 20.6C170.506 19.448 165.258 22.136 163.978 27.128C158.602 47.096 155.786 67.576 156.938 87.16C157.45 94.456 160.01 102.264 167.05 105.72C170.634 107.384 174.474 108.28 178.442 108.28C181.386 108.28 184.97 108.408 188.17 107.896C199.562 106.104 199.178 91 189.066 89.976ZM242.029 31.096C239.469 25.72 236.909 19.832 231.149 17.4C227.309 15.864 223.341 16.12 219.885 18.168C216.557 20.088 214.893 23.416 213.613 26.872C209.389 36.728 207.725 47.48 205.677 57.976C203.245 69.88 200.941 81.912 198.893 94.072C197.997 98.808 200.173 104.184 205.293 105.464C209.901 106.488 215.917 104.056 216.813 98.936C217.069 96.76 217.581 94.584 217.965 92.408C225.645 90.104 233.453 87.928 241.261 85.752C242.157 85.496 242.925 84.984 243.821 84.6C244.845 88.184 245.997 91.64 247.021 95.224C248.429 99.832 253.549 103.288 258.413 101.752C263.277 100.088 266.349 95.224 264.941 90.36C259.053 69.88 251.245 50.04 242.029 31.096ZM236.269 67.704C231.533 69.112 226.669 70.52 221.933 71.8C222.061 71.16 222.189 70.392 222.317 69.624C223.981 61.048 225.389 52.344 227.565 44.024C231.533 51.96 234.733 59.64 237.677 67.448C237.293 67.448 236.653 67.576 236.269 67.704ZM278.428 14.968C273.18 15.224 269.596 19.064 269.212 24.184C268.188 38.648 267.676 53.368 268.316 67.832C268.572 72.824 272.54 77.432 277.532 77.176C282.396 76.92 287.004 73.08 286.748 67.832C286.236 53.368 286.62 38.648 287.644 24.184C288.028 19.448 283.164 14.84 278.428 14.968ZM277.788 85.624C273.052 85.624 268.444 89.976 268.7 94.84C268.828 99.832 272.668 104.056 277.788 104.056C282.652 104.056 287.26 99.832 287.004 94.84C286.876 89.848 283.036 85.624 277.788 85.624ZM355.504 18.68C355.504 13.688 351.152 9.07999 346.16 9.336C341.04 9.592 337.072 13.432 336.944 18.68C336.432 44.152 336.56 69.752 337.328 95.352C337.456 100.216 341.552 104.952 346.672 104.696C351.664 104.44 356.144 100.6 356.016 95.352C355.12 69.752 354.992 44.152 355.504 18.68ZM371.803 4.856C370.779 3.83199 368.987 3.064 367.707 3.19199C364.763 3.19199 361.435 5.752 361.819 9.07999C362.203 12.664 362.331 16.376 362.203 20.088C362.203 23.288 365.019 26.232 368.091 25.976C371.291 25.848 373.979 23.416 373.979 20.088C374.107 16.376 373.979 12.664 373.595 9.07999C373.339 7.41599 373.083 6.008 371.803 4.856ZM471.327 17.528C468.511 15.352 464.159 14.84 461.087 16.888C450.079 23.8 442.527 34.04 434.207 43.768C432.287 45.944 430.239 48.376 428.191 50.552C427.679 51.064 427.039 51.704 426.527 52.216C426.399 52.088 426.399 51.96 426.143 51.832C424.351 48.632 422.431 45.176 420.383 41.976C416.415 35.32 412.447 28.408 408.479 21.752C406.815 18.808 405.023 15.992 402.847 13.048C399.135 8.184 394.911 3.31999 387.871 4.6C377.119 7.032 379.167 20.856 379.295 29.048C379.551 36.6 379.935 44.152 380.831 51.704C382.367 69.24 385.439 86.648 389.791 103.8C390.943 108.408 396.447 111.864 401.183 110.2C406.047 108.664 408.991 103.8 407.711 98.808C405.919 91.896 404.255 84.728 403.103 77.688C401.055 65.528 399.135 53.752 398.623 41.592C403.231 49.4 407.839 57.336 412.447 65.144C415.903 70.904 421.151 75.128 428.191 73.336C432.927 72.312 436.639 68.344 440.095 65.016C444.703 60.408 448.799 55.288 453.023 50.168C451.231 65.912 450.335 81.656 449.951 97.4C449.951 102.264 454.303 106.872 459.295 106.744C464.415 106.488 468.511 102.776 468.639 97.4C468.767 85.496 469.279 73.464 470.431 61.56C471.455 49.656 472.991 38.52 474.783 27.384C475.295 23.544 474.655 20.088 471.327 17.528Z" fill="black"/>
<path d="M61.952 204.248C61.824 204.376 61.568 204.504 61.312 204.632C60.928 204.76 60.672 205.016 60.288 205.144C57.088 206.296 53.76 207.064 50.432 207.192C42.624 207.704 35.968 205.016 30.592 200.536C25.472 196.056 22.4 190.296 21.248 184.152C20.096 177.496 22.016 170.712 25.6 165.336C30.08 158.552 37.376 154.072 45.056 154.072C49.152 154.2 53.248 155.608 56.576 157.656C58.24 158.936 59.904 159.704 62.208 159.704C64.384 159.704 67.072 158.68 68.736 156.888C71.808 153.56 72.832 147.032 68.736 143.704C63.616 139.864 57.984 136.92 51.456 136.024C45.056 135 38.4 135.384 32.128 137.56C21.12 141.4 11.52 149.72 6.4 160.6C1.408 171.608 0.512 184.152 5.12 195.544C9.6 206.936 17.92 216.792 29.312 221.656C42.88 227.544 58.112 227.16 71.296 220.376C75.648 218.2 77.312 211.672 74.752 207.704C71.808 203.224 66.688 201.944 61.952 204.248ZM61.312 204.632C60.8 205.016 60.416 205.144 60.16 205.144C60.544 205.016 60.8 204.76 61.312 204.632ZM152.618 187.224C151.466 180.056 150.058 172.888 148.65 165.848C146.218 152.792 142.122 131.8 126.122 130.264C117.418 129.496 111.018 137.56 106.794 143.832C103.21 149.464 100.65 155.608 98.09 161.624C95.146 168.408 92.33 175.192 89.898 182.104C84.778 196.696 80.81 211.544 78.122 226.776C77.354 231.512 79.53 236.888 84.65 238.168C89.258 239.192 95.274 236.76 96.042 231.64C97.194 225.752 98.346 219.992 99.754 214.232C109.866 213.848 126.762 213.464 137.77 213.08C137.77 213.336 137.898 213.848 137.898 214.104V214.36C138.282 216.28 138.538 218.2 139.946 231.256C140.202 233.816 140.97 235.992 142.762 237.912C144.298 239.32 147.114 240.6 149.418 240.6C154.026 240.344 159.146 236.376 158.634 231.256C156.97 216.536 155.05 201.816 152.618 187.224ZM105.002 195.416C105.002 195.288 105.13 195.16 105.13 195.032C108.33 184.792 114.346 167 120.618 156.376C125.226 148.952 124.97 148.824 127.018 156.12C127.658 158.552 128.682 162.392 130.474 169.176C134.442 190.808 134.698 192.728 135.082 194.648C134.186 194.392 133.162 194.264 105.002 195.416ZM180.397 206.168L183.853 204.376C194.093 211.544 205.869 218.328 217.773 223.192C222.509 225.24 228.141 221.016 229.165 216.664C230.317 211.16 227.373 207.32 222.637 205.272C215.213 202.328 207.917 198.36 201.133 194.008C215.213 183.64 227.757 169.944 229.421 153.304C230.189 145.88 227.117 138.072 221.485 133.336C206.893 121.048 183.725 125.016 168.237 131.928C163.373 134.104 159.149 137.176 157.997 142.936C157.357 145.88 157.869 148.952 159.661 151.384L162.349 230.232C162.605 234.968 166.445 239.832 171.693 239.448C176.557 239.192 181.165 235.48 181.037 230.232L180.653 218.328L180.397 206.168ZM179.373 185.688L178.221 148.056C185.517 143.192 207.533 138.84 210.349 150.36C213.805 165.208 189.229 181.08 179.373 185.688ZM268.105 210.136C262.985 211.288 257.993 212.056 252.873 212.312C252.745 209.496 252.873 206.552 252.873 203.864C252.873 189.4 252.873 175.064 252.873 160.6C252.873 152.408 252.745 144.216 252.745 136.024C252.745 131.16 248.521 126.424 243.529 126.68C238.537 126.936 234.313 130.648 234.313 136.024C234.313 151.896 234.313 167.768 234.313 183.64C234.313 191.576 234.313 199.512 234.313 207.576C234.313 211.672 234.057 215.64 234.825 219.608C235.849 224.856 239.561 228.952 244.681 230.36C248.905 231.64 253.897 230.744 258.121 230.36C263.113 229.848 268.105 229.208 273.225 228.056C277.961 227.16 281.033 221.272 279.625 216.664C277.961 211.672 273.353 208.984 268.105 210.136ZM302.873 141.528C304.025 141.528 305.305 141.4 306.329 141.4C309.401 141.272 312.473 141.272 315.545 141.272C321.689 141.272 328.089 141.4 334.361 141.912C339.353 142.04 343.961 137.304 343.705 132.44C343.449 127.192 339.609 123.48 334.361 123.224C328.089 122.84 321.689 122.712 315.545 122.712C309.529 122.712 302.745 122.072 296.985 123.864C290.201 125.912 285.593 131.8 284.441 138.712C283.545 144.344 284.057 149.976 284.313 155.736C284.953 168.024 285.337 180.056 285.849 192.344C286.105 197.976 286.105 203.736 286.745 209.368C287.513 215.128 288.793 220.888 293.017 225.24C298.521 230.872 306.073 230.744 313.369 230.104C320.921 229.336 328.473 228.184 335.897 226.776C340.633 225.752 343.833 219.736 342.297 215.256C340.633 210.136 336.025 207.832 330.905 208.728C325.273 210.008 319.641 210.648 314.137 211.672C309.145 212.44 305.049 212.184 305.049 205.144C304.409 196.184 304.281 187.736 303.897 179.288C307.609 179.288 311.321 179.288 314.905 179.288C319.769 179.288 324.505 175.064 324.249 169.944C323.865 164.952 320.153 160.6 314.905 160.6C311.065 160.6 307.097 160.6 303.129 160.6C302.873 153.944 302.873 147.8 302.873 141.528ZM388.386 184.664C383.394 181.848 378.018 179.672 373.154 176.472C362.274 168.664 365.986 156.632 378.658 153.432C381.346 152.792 384.162 153.048 387.106 154.072C391.714 155.736 397.346 155.48 399.778 150.872C402.082 146.648 401.186 140.248 396.578 138.072C385.57 132.696 372.77 133.976 362.658 140.888C352.162 148.056 343.97 160.856 348.45 173.912C353.954 189.4 368.546 194.264 380.578 201.816C386.082 205.272 386.978 209.496 384.546 212.568C379.554 218.456 367.266 217.688 360.866 215.512C356.258 214.104 350.626 217.176 349.474 221.912C348.322 227.16 351.01 231.896 355.874 233.56C367.778 237.144 382.498 236.632 393.122 229.464C398.498 225.752 402.722 221.016 404.77 214.744C406.69 208.6 405.538 201.432 401.698 196.056C398.37 191.192 393.506 187.608 388.386 184.664Z" fill="#F4BFBF"/>
</svg>
