<svg width="61" height="62" viewBox="0 0 61 62" fill="none" xmlns="http://www.w3.org/2000/svg">
<path d="M33.4935 20.7642C32.4769 19.7392 31.3981 18.6402 30.4407 17.544C29.5455 18.569 28.5994 19.5029 27.6533 20.4567C27.4246 20.6845 27.2382 20.9521 27.1026 21.2454C26.8937 21.7067 26.8259 22.222 26.9106 22.7231C26.9106 22.7744 26.9106 22.8256 26.9106 22.8769C26.9982 23.153 27.1281 23.4121 27.2975 23.6456C27.3257 23.6855 27.3483 23.7253 27.3681 23.768C27.9894 24.5482 29.4636 25.9832 30.2882 26.7833L35.1738 31.914L36.6395 33.4742C37.8482 34.7384 38.9383 36.1108 39.8957 37.5771C40.0115 37.7792 40.1951 37.9273 40.4153 37.9985H40.517C40.7542 37.9586 40.9491 37.7878 41.0253 37.5571C41.3416 36.5265 41.5026 35.4559 41.5026 34.3768C41.4744 31.8798 40.6893 29.454 39.2546 27.421C37.563 25.0379 35.6426 22.8313 33.5161 20.8354L33.4935 20.7642Z" fill="#3F3D56"/>
<path d="M34.8576 37.2838C33.646 35.7947 32.4769 34.4309 30.6356 32.4521C29.0795 34.2487 27.6534 35.6324 26.4729 37.039C24.3944 39.3082 24.5328 42.8444 26.7835 44.94C29.0343 47.0356 32.5418 46.896 34.6203 44.6268C36.3854 42.7021 36.5859 39.7979 35.1033 37.6426C35.0298 37.5145 34.9479 37.3949 34.8576 37.2838Z" fill="#3F3D56"/>
<path d="M27.6731 30.0177C27.8087 29.8611 27.8087 29.6305 27.6731 29.4739L24.0809 25.7697L23.3071 25.0322C22.6858 25.7611 22.104 26.5242 21.5675 27.3214C20.6977 28.5856 20.0509 29.9921 19.6556 31.4755C19.2235 33.1838 19.263 34.9804 19.777 36.666L19.8476 36.8197C19.938 37.0019 20.0396 37.1756 20.1526 37.3436C20.1526 37.3436 20.5706 38.0213 20.9349 38.0526H21.0676C21.1919 38.0241 21.2935 37.9358 21.3415 37.8163C21.6804 37.0988 22.104 36.4297 22.6039 35.8147L23.9171 34.2031L27.6731 30.0177Z" fill="#3F3D56"/>
<path d="M30.5734 0.346804C13.7617 0.341109 0.129917 14.0761 0.124269 31.0228C0.118621 47.9694 13.742 61.7158 30.5508 61.7215C47.3626 61.7272 60.9944 47.9922 61 31.0456C61 31.0427 61 31.0399 61 31.0342C61 14.0903 47.3795 0.352498 30.5734 0.346804ZM30.3983 50.4978C21.5533 50.475 14.3915 43.2459 14.3802 34.3284C14.3802 26.7463 19.3986 21.6981 23.8126 17.2365C26.7638 14.2612 29.5822 11.4282 30.4181 8.2393C31.2512 11.431 34.0725 14.2612 37.0236 17.2365C41.4518 21.701 46.456 26.7463 46.456 34.3284C46.4476 43.2601 39.2603 50.4978 30.3983 50.4978Z" fill="#3F3D56"/>
</svg>
