<svg width="188" height="26" viewBox="0 0 188 26" fill="none" xmlns="http://www.w3.org/2000/svg">
<path d="M23.1328 15.1914C22.2891 17.5117 19.6523 18.0742 16.4883 18.0742C12.7266 18.0215 9.52734 17.3184 9.58008 13.4688V12.8887C9.52734 9.00391 12.7266 8.33594 16.4883 8.2832C19.6523 8.2832 22.2715 8.82812 23.1328 11.1484H32.5723C31.9922 3.18555 24.9961 0.794922 16.4883 0.777344C7.62891 0.8125 0.316406 3.37891 0.351562 12.3086V14.0312C0.316406 22.9785 7.62891 25.5449 16.4883 25.5625C24.9961 25.5625 31.9922 23.1719 32.5723 15.1914H23.1328ZM49.3418 8.23047L52.5762 15.209H46.0898L49.3418 8.23047ZM31.1836 25.0176H41.5547L43.418 20.9746H55.248L57.1113 25.0176H67.4824L54.8086 1.39258H43.8574L31.1836 25.0176ZM81.5449 25.0176V8.88086H92.4961V1.39258H61.3828V8.88086H72.334V25.0176H81.5449ZM104.537 8.23047L107.771 15.209H101.285L104.537 8.23047ZM86.3789 25.0176H96.75L98.6133 20.9746H110.443L112.307 25.0176H122.678L110.004 1.39258H99.0527L86.3789 25.0176ZM143.965 15.1914C143.121 17.5117 140.484 18.0742 137.32 18.0742C133.559 18.0215 130.359 17.3184 130.412 13.4688V12.8887C130.359 9.00391 133.559 8.33594 137.32 8.2832C140.484 8.2832 143.104 8.82812 143.965 11.1484H153.404C152.824 3.18555 145.828 0.794922 137.32 0.777344C128.461 0.8125 121.148 3.37891 121.184 12.3086V14.0312C121.148 22.9785 128.461 25.5449 137.32 25.5625C145.828 25.5625 152.824 23.1719 153.404 15.1914H143.965ZM171.844 0.777344C162.949 0.794922 155.672 3.36133 155.707 12.3086V14.0312C155.672 22.9609 162.949 25.5449 171.844 25.5625C180.721 25.5449 187.998 22.9609 187.963 14.0312V12.3086C187.963 3.37891 180.738 0.777344 171.844 0.777344ZM178.752 13.4512C178.805 17.3184 175.605 18.0215 171.844 18.0742C168.064 18.0215 164.865 17.3184 164.918 13.4512V12.8711C164.865 9.02148 168.064 8.31836 171.844 8.26562C175.605 8.31836 178.805 9.02148 178.752 12.8711V13.4512Z" fill="black"/>
</svg>
